<svg xmlns="http://www.w3.org/2000/svg" xmlns:xlink="http://www.w3.org/1999/xlink" width="24" height="24" viewBox="0 0 24 24"><defs><clipPath><rect width="24" height="24" transform="translate(162 494)"/></clipPath></defs><g transform="translate(-162 -494)"><path d="M105.435,138.667a3.2,3.2,0,0,1,3.2,3.2v4.079a.874.874,0,0,1-.874.874,2.039,2.039,0,0,0,0,4.079.874.874,0,0,1,.874.874v4.079a3.2,3.2,0,0,1-3.2,3.2h-16.9a3.2,3.2,0,0,1-3.2-3.2v-4.079a.874.874,0,0,1,.874-.874,2.039,2.039,0,1,0,0-4.079.874.874,0,0,1-.874-.874v-4.079a3.2,3.2,0,0,1,3.2-3.2Zm-4.953,11.653H93.491a.874.874,0,1,0,0,1.748h6.992a.874.874,0,0,0,0-1.748Zm0-4.661H93.491a.874.874,0,1,0,0,1.748h6.992a.874.874,0,1,0,0-1.748Z" transform="translate(77.013 357.137)" fill="currentColor"/></g></svg>