<svg xmlns="http://www.w3.org/2000/svg" width="19.029" height="19.031" viewBox="0 0 19.029 19.031"><defs><style></style></defs><path class="a" d="M86.827,95.308l-.225,0a9.93,9.93,0,0,1-7.161-3.244,9.989,9.989,0,0,1,1.677-14.953,1.625,1.625,0,0,1,1.819-.038,1.665,1.665,0,0,1,.756,1.68,8.434,8.434,0,0,0,9.7,9.69,1.67,1.67,0,0,1,1.682.756,1.621,1.621,0,0,1-.039,1.817,10.038,10.038,0,0,1-1.145,1.368,9.916,9.916,0,0,1-7.064,2.927ZM82.054,78.371a.078.078,0,0,0-.046.018A8.435,8.435,0,1,0,93.755,90.125a.075.075,0,0,0,0-.1.1.1,0,0,0-.11-.05A9.993,9.993,0,0,1,82.155,78.5a.1.1,0,0,0-.05-.111A.1.1,0,0,0,82.054,78.371Z" transform="translate(-76.589 -76.527)" fill="#A1ADD5"/></svg>