<svg xmlns="http://www.w3.org/2000/svg" width="23.117" height="23.117" viewBox="0 0 23.117 23.117"><defs><style>.a{fill:#a1add5;}</style></defs><path class="a" d="M110.059,98.8a11.559,11.559,0,1,0,11.559,11.559A11.558,11.558,0,0,0,110.059,98.8Zm-.369,18.544a1.366,1.366,0,1,1,1.341-1.366A1.355,1.355,0,0,1,109.689,117.344Zm3.742-8.581a3.725,3.725,0,0,1-.66.912q-.382.386-1.371,1.293a5.641,5.641,0,0,0-.437.451,2,2,0,0,0-.246.355,1.642,1.642,0,0,0-.123.325c-.028.109-.073.3-.132.565a.9.9,0,0,1-.957.859.949.949,0,0,1-.7-.283,1.123,1.123,0,0,1-.285-.837,2.987,2.987,0,0,1,.764-2.1,12.317,12.317,0,0,1,.932-.912c.344-.308.591-.54.742-.7a2.238,2.238,0,0,0,.386-.526,1.3,1.3,0,0,0,.157-.63,1.476,1.476,0,0,0-.479-1.114,1.723,1.723,0,0,0-1.234-.456,1.677,1.677,0,0,0-1.3.459,3.628,3.628,0,0,0-.705,1.349q-.273.936-1.038.935a1.087,1.087,0,0,1-1.072-1.03,3.038,3.038,0,0,1,.49-1.59,3.8,3.8,0,0,1,1.43-1.335,4.4,4.4,0,0,1,2.194-.529,4.587,4.587,0,0,1,2.057.442,3.36,3.36,0,0,1,1.38,1.2,3.006,3.006,0,0,1,.487,1.654A2.572,2.572,0,0,1,113.431,108.763Zm0,0" transform="translate(-98.5 -98.8)"/></svg>