<svg xmlns="http://www.w3.org/2000/svg" xmlns:xlink="http://www.w3.org/1999/xlink" width="24" height="24" viewBox="0 0 24 24"><defs><clipPath id="a"><rect width="24" height="24" transform="translate(162 374)"/></clipPath></defs><g transform="translate(-162 -374)"><path d="M105.216,154.513a3.026,3.026,0,1,0,3.025,3.027,3.075,3.075,0,0,0-3.027-3.027Zm14.769-4.842c1.331,0,3.389.484,3.389,1.211v-6.053c0-1.332-.484-2.784-1.814-2.784h-6.054l-2.421,6.053h-4.237v-4.479c0-.363.121-.726-.242-.969l-2.179-2.3a1.034,1.034,0,0,0-1.574,0,1.2,1.2,0,0,0-.242,1.695l1.814,2.058V148.1h-.6c-.726,0-1.816.968-1.816,1.573v3.753c1.211,0,.726-.121.969-.121a4.194,4.194,0,0,1,4.358,3.995.528.528,0,0,0,.121.363H114.9c-.363,0-.605-1.331-.605-2.179A5.565,5.565,0,0,1,119.985,149.67Zm.363,1.211a4.842,4.842,0,1,0,4.842,4.842,4.857,4.857,0,0,0-4.842-4.842Zm0,0" transform="translate(60.31 235.724)" fill="currentColor"/></g></svg>