<svg xmlns="http://www.w3.org/2000/svg" xmlns:xlink="http://www.w3.org/1999/xlink" width="24" height="24" viewBox="0 0 24 24"><defs><clipPath><rect width="24" height="24" transform="translate(162 301)"/></clipPath></defs><g transform="translate(-162 -301)"><path d="M118.848,104.364l8.491,6.075a3.171,3.171,0,0,1,1.328,2.578v9.8a3.179,3.179,0,0,1-3.184,3.174H121.14V121.37a3.474,3.474,0,0,0-6.947,0v4.617h-4.342a3.179,3.179,0,0,1-3.184-3.174v-9.8a3.171,3.171,0,0,1,1.327-2.578l8.491-6.075A2.032,2.032,0,0,1,118.848,104.364Z" transform="translate(56.333 197.67)" fill="currentColor"/></g></svg>