<svg xmlns="http://www.w3.org/2000/svg" width="23.009" height="23.009" viewBox="0 0 23.009 23.009"><defs><style></style></defs><path d="M97.74,105.876a.846.846,0,0,1,.846.846v1.128a.846.846,0,0,1-1.692,0v-1.128A.846.846,0,0,1,97.74,105.876Zm7.161-2.47.8.8a.846.846,0,1,1-1.2,1.2l-.8-.8a.846.846,0,1,1,1.2-1.2Zm-13.125,0a.846.846,0,0,1,0,1.2l-.8.8a.846.846,0,0,1-1.2-1.2l.8-.8A.846.846,0,0,1,91.775,103.406Zm5.956-13.295a7.33,7.33,0,1,1-7.33,7.33A7.33,7.33,0,0,1,97.732,90.111Zm0,1.692a5.638,5.638,0,1,0,5.638,5.638A5.638,5.638,0,0,0,97.732,91.8ZM108.148,96.6a.846.846,0,0,1,0,1.692h-1.128a.846.846,0,0,1,0-1.692Zm-19.689,0a.846.846,0,0,1,0,1.692H87.331a.846.846,0,1,1,0-1.692ZM105.7,89.483a.846.846,0,0,1,0,1.2l-.8.8a.846.846,0,0,1-1.2-1.2l.8-.8A.846.846,0,0,1,105.7,89.483Zm-14.72,0,.8.8a.846.846,0,1,1-1.2,1.2l-.8-.8a.846.846,0,1,1,1.2-1.2Zm6.762-3.3a.846.846,0,0,1,.846.846V88.16a.846.846,0,0,1-1.692,0V87.032A.846.846,0,0,1,97.74,86.187Z" transform="translate(-86.235 -85.937)" fill="#A1ADD5"/></svg>