<svg xmlns="http://www.w3.org/2000/svg" width="50" height="50" viewBox="0 0 50 50"><defs><style>.a_color{fill:#fff;}.b_color{fill:#4965fc;}</style></defs><g transform="translate(-420 -603)"><circle class="a_color" cx="25" cy="25" r="25" transform="translate(420 603)"/><path class="b_color" d="M23.1.745A2.511,2.511,0,0,0,20.4.2L1.794,7.264A2.731,2.731,0,0,0,0,9.854a2.409,2.409,0,0,0,1.614,2.3l6.965,2.517a.982.982,0,0,1,.6.6L11.7,22.235A2.409,2.409,0,0,0,14,23.85h.022a2.735,2.735,0,0,0,2.569-1.794l7.059-18.6A2.513,2.513,0,0,0,23.1.745ZM17.264,7.35l-7.3,7.3a.54.54,0,1,1-.764-.764l7.3-7.3a.54.54,0,1,1,.764.764Z" transform="translate(443.017 611.135) rotate(45)"/></g></svg>