<svg xmlns="http://www.w3.org/2000/svg" xmlns:xlink="http://www.w3.org/1999/xlink" width="24" height="24" viewBox="0 0 24 24"><defs><clipPath><rect width="24" height="24" transform="translate(162 446)"/></clipPath></defs><g transform="translate(-162 -446)"><g transform="translate(64.931 349.544)"><path d="M106.87,97.5H99.488A1.487,1.487,0,0,0,98,98.988v7.38a1.487,1.487,0,0,0,1.488,1.488h7.38a1.487,1.487,0,0,0,1.488-1.488v-7.38A1.483,1.483,0,0,0,106.87,97.5Zm12.1,0h-7.383a1.487,1.487,0,0,0-1.488,1.488v7.38a1.487,1.487,0,0,0,1.488,1.488h7.383a1.487,1.487,0,0,0,1.488-1.488v-7.38A1.487,1.487,0,0,0,118.966,97.5Zm-12.1,11.908H99.488A1.487,1.487,0,0,0,98,110.9v7.38a1.487,1.487,0,0,0,1.488,1.488h7.38a1.487,1.487,0,0,0,1.488-1.488V110.9A1.483,1.483,0,0,0,106.87,109.408Z" transform="translate(0)" fill="currentColor"/><path d="M553.97,537.7h-7.383a1.487,1.487,0,0,0-1.488,1.488v7.38a1.487,1.487,0,0,0,1.488,1.488h7.383a1.487,1.487,0,0,0,1.488-1.488v-7.38A1.487,1.487,0,0,0,553.97,537.7Z" transform="translate(-435.005 -428.292)" fill="currentColor"/></g></g></svg>