<svg xmlns="http://www.w3.org/2000/svg" xmlns:xlink="http://www.w3.org/1999/xlink" width="120" height="120" viewBox="0 0 120 120"><defs><style>.nft_a,.nft_c{fill:#fff;}.nft_a{stroke:#707070;}.nft_b{clip-path:url(#nft_a);}.nft_d{fill:#ff7d2c;}</style><clipPath id="nft_a"><rect class="nft_a" width="120" height="120" transform="translate(990 643)"/></clipPath></defs><g class="nft_b" transform="translate(-990 -643)"><g transform="translate(-8.15 -4.737)"><path class="nft_c" d="M3106.84,686.646l36.108-18.752,29.529,13.886,5.572,26.4-3.649,21.873-27.163,17.171-15.481-3.091-16.652-10.01-8.262-4.069v-43.41Z" transform="translate(-2083)"/><path class="nft_d" d="M648.06,292.844l41.219,23.863a1.97,1.97,0,0,1,.983,1.7v47.737a1.969,1.969,0,0,1-.983,1.7L648.06,391.717a1.971,1.971,0,0,1-1.974,0l-41.2-23.863a1.969,1.969,0,0,1-.982-1.7V318.411a1.97,1.97,0,0,1,.982-1.7l41.2-23.863A1.969,1.969,0,0,1,648.06,292.844Zm28.563,58.529-28.565,16.48a1.969,1.969,0,0,0-.985,1.705h0a1.969,1.969,0,0,1-2.953,1.706l-23.644-13.641a1.969,1.969,0,0,0-2.953,1.705h0a1.969,1.969,0,0,0,.985,1.705l27.581,15.912a1.97,1.97,0,0,0,1.968,0l27.581-15.912a1.969,1.969,0,0,0,.985-1.705v-7.955Zm-29.55,4.547v4.547a1.969,1.969,0,0,0,2.953,1.705l25.612-14.776a1.969,1.969,0,0,0,.985-1.705v-4.546a1.969,1.969,0,0,0-2.953-1.705l-25.612,14.776A1.969,1.969,0,0,0,647.073,355.919Zm2.953-7.387,25.612-14.776a1.969,1.969,0,0,0,.985-1.705v-6.818a1.97,1.97,0,0,0-.985-1.705l-27.581-15.912a1.97,1.97,0,0,0-1.968,0l-27.581,15.912a1.97,1.97,0,0,0-.985,1.705V327.5a1.969,1.969,0,0,0,.985,1.705l27.58,15.912a1.968,1.968,0,0,1,.985,1.705h0A1.969,1.969,0,0,0,650.026,348.533Z" transform="translate(411.068 365.457)"/></g></g></svg>