<svg xmlns="http://www.w3.org/2000/svg" xmlns:xlink="http://www.w3.org/1999/xlink" width="24" height="24" viewBox="0 0 24 24"><defs><clipPath><rect width="24" height="24" transform="translate(162 409)"/></clipPath></defs><g transform="translate(-162 -409)"><g transform="translate(108.228 258.678)"><path d="M76.467,153.6H66.973c-.7,0-1.278.409-1.278.92s.575.92,1.278.92h7.411c.7,0,1.278.179,1.278.4v4c0,.7-.2,1.188-.46,1.086l-.23-.166a2.926,2.926,0,0,0-3.629,0,1.776,1.776,0,0,1-2.287,0,2.913,2.913,0,0,0-3.629,0,1.776,1.776,0,0,1-2.287,0,2.913,2.913,0,0,0-3.629,0,1.744,1.744,0,0,1-2.274,0l-.319-.23a1.8,1.8,0,0,1-1.022-1.636V153.6h-.818c-.447,0-.805.575-.805,1.278v15.333a1.278,1.278,0,0,0,1.278,1.278H75.994a1.278,1.278,0,0,0,1.278-1.278V154.878C77.272,154.175,76.9,153.6,76.467,153.6Z" transform="translate(0)" fill="currentColor"/><path d="M195.183,191.638c.409,0,.741-.2.741-.92a1.955,1.955,0,0,0-.741-1.278,1.955,1.955,0,0,0-.741,1.278C194.441,191.421,194.774,191.638,195.183,191.638Zm1.917,0c.409,0,.741-.2.741-.92a1.955,1.955,0,0,0-.741-1.278,1.955,1.955,0,0,0-.741,1.278C196.345,191.421,196.652,191.638,197.1,191.638Zm-3.846,0c.409,0,.741-.2.741-.92a1.955,1.955,0,0,0-.741-1.278,1.955,1.955,0,0,0-.741,1.278C192.512,191.421,192.819,191.638,193.253,191.638Z" transform="translate(-134.79 -34.946)" fill="currentColor"/></g></g></svg>