<svg xmlns="http://www.w3.org/2000/svg" xmlns:xlink="http://www.w3.org/1999/xlink" width="120" height="120" viewBox="0 0 120 120"><defs><style>.pool_a{fill:#fff;stroke:#707070;}.pool_b{clip-path:url(#pool_a);}.pool_c{fill:#ff2;}</style><clipPath id="pool_a"><rect class="pool_a" width="120" height="120" transform="translate(1410 643)"/></clipPath></defs><g class="pool_b" transform="translate(-1410 -643)"><path class="pool_c" d="M80.566,93.389h2.566v.7a3.97,3.97,0,0,0-.233,1.633v3.733H80.566c-15.165,0-27.3-7-27.3-15.4V77.991C53.036,86.39,65.4,93.389,80.566,93.389Zm0-10.732h2.566v.7A3.97,3.97,0,0,0,82.9,84.99v3.733H80.566c-15.165,0-27.3-7-27.3-15.4V67.259C53.036,75.658,65.4,82.657,80.566,82.657Zm0-21.7c15.165,0,27.3-7,27.3-15.4v6.066c0,3.733-2.333,7-6.066,9.565a39.543,39.543,0,0,0-10.032,4.433,45.141,45.141,0,0,1-11.432,1.4c-15.165,0-27.3-7-27.3-15.4V45.562C53.036,54.194,65.4,60.96,80.566,60.96Zm0,10.732a39.541,39.541,0,0,0,5.366-.233,16.889,16.889,0,0,0-2.8,6.3H80.566c-15.165,0-27.3-7-27.3-15.4V56.294c-.233,8.632,12.132,15.4,27.3,15.4Zm0-46.194c15.165,0,27.3,7,27.3,15.4s-12.365,15.4-27.3,15.4c-15.165,0-27.3-7-27.3-15.4-.233-8.4,12.132-15.4,27.3-15.4Zm57.392,65.324c-1.633,0-10.265-4.9-10.5-5.133-.7-.7-.467-1.4.233-1.4s4.433-.467,4.433-.467a19.459,19.459,0,0,0-14-12.132c-10.5-2.566-21.464,4.433-24.03,15.165,0,0-.233,1.167-.933,1.167A9.2,9.2,0,0,1,89.9,86.856c-.7-.467-.933-.233-.7-1.4a25.374,25.374,0,0,1,50.16,3.5A1.42,1.42,0,0,1,137.958,90.822ZM99.93,96.655a.98.98,0,0,1-.233,1.866c-.933,0-3.966.467-3.966.467a19.712,19.712,0,0,0,37.328-3.266c0-.233,0-.233.233-.7,0-.467.233-1.167,1.167-.933s3.266.933,3.966,1.167.7.467.467,1.167v.467a25.983,25.983,0,0,1-30.8,19.364,25.507,25.507,0,0,1-19.831-23.1c-.233-1.866,1.166-2.333,2.566-1.633a89.569,89.569,0,0,1,9.1,5.133Zm5.833-14.7a2.333,2.333,0,1,1-2.333,2.333A2.2,2.2,0,0,1,105.762,81.957Zm0,7a2.333,2.333,0,1,1-2.333,2.333A2.2,2.2,0,0,1,105.762,88.956Zm0,7a2.333,2.333,0,1,1-2.333,2.333A2.2,2.2,0,0,1,105.762,95.955Zm7-14h9.332a2.333,2.333,0,1,1,0,4.666h-9.332a2.333,2.333,0,1,1,0-4.666Zm0,7h9.332a2.333,2.333,0,1,1,0,4.666h-9.332a2.333,2.333,0,1,1,0-4.666Zm0,7h9.332a2.333,2.333,0,1,1,0,4.666h-9.332a2.333,2.333,0,1,1,0-4.666Z" transform="translate(1373.785 631.822)"/></g></svg>