<svg xmlns="http://www.w3.org/2000/svg" width="32" height="31.999" viewBox="0 0 32 31.999"><defs></defs><g transform="translate(0 -0.03)"><path d="M.226,22.075a15.737,15.737,0,0,0,2.35,3.793,2.98,2.98,0,0,0,2.91.971,5.26,5.26,0,0,1,3.576.508,4.639,4.639,0,0,1,2.218,2.608,2.847,2.847,0,0,0,2.373,1.923,18.033,18.033,0,0,0,4.651,0,2.847,2.847,0,0,0,2.376-1.923,4.639,4.639,0,0,1,2.256-2.608,5.26,5.26,0,0,1,3.572-.508,2.984,2.984,0,0,0,2.914-.971,15.737,15.737,0,0,0,2.35-3.793,2.636,2.636,0,0,0-.579-2.966,4.323,4.323,0,0,1,0-6.161,2.636,2.636,0,0,0,.579-2.966A15.737,15.737,0,0,0,29.4,6.19a2.98,2.98,0,0,0-2.91-.971,5.26,5.26,0,0,1-3.557-.508A4.65,4.65,0,0,1,20.681,2.1,2.847,2.847,0,0,0,18.316.18a18.153,18.153,0,0,0-4.651,0A2.847,2.847,0,0,0,11.281,2.1a4.65,4.65,0,0,1-2.23,2.608,5.26,5.26,0,0,1-3.572.508,2.976,2.976,0,0,0-2.914.971A15.737,15.737,0,0,0,.226,9.983a2.636,2.636,0,0,0,.579,2.966A4.379,4.379,0,0,1,2.1,16.027,4.379,4.379,0,0,1,.806,19.11a2.636,2.636,0,0,0-.579,2.966Z" transform="translate(0 0)" fill="#49a9fc"/><path d="M312.4,305.766a6.718,6.718,0,1,0,6.714,6.715A6.718,6.718,0,0,0,312.4,305.766Zm4.012,6.714a4.012,4.012,0,1,1-4.012-4.008A4.012,4.012,0,0,1,316.407,312.48Z" transform="translate(-296.406 -296.453)" fill="#fff"/></g></svg>