<svg xmlns="http://www.w3.org/2000/svg" xmlns:xlink="http://www.w3.org/1999/xlink" width="120" height="120" viewBox="0 0 120 120"><defs><style>.a,.c{fill:#fff;}.a{stroke:#707070;}.b{clip-path:url(#a);}.d{fill:#ffbe1b;}.e{fill:#2371f5;}.f{fill:#ffe37b;}</style><clipPath id="a"><rect class="a" width="120" height="120" transform="translate(570 643)"/></clipPath></defs><g class="b" transform="translate(-570 -643)"><g transform="translate(568.095 637.016)"><g transform="translate(9.474 6.4)"><path class="c" d="M43.969,55.432l.5.248-.5.248a9.171,9.171,0,0,0-6.689,6.689l-.248.248-.248-.5A9.171,9.171,0,0,0,30.1,55.68l-.5-.248.5-.248A9.171,9.171,0,0,0,36.785,48.5l.248-.5.248.5a8.756,8.756,0,0,0,6.689,6.937Z" transform="translate(20.262 55.063)"/><path class="c" d="M34.171,55.112h0a6.362,6.362,0,0,0-4.212,4.459v0a6.02,6.02,0,0,0-4.212-4.212h0a6.02,6.02,0,0,0,4.212-4.212v0a6.16,6.16,0,0,0,4.212,3.964Z" transform="translate(14.204 59.348)"/><path class="d" d="M34.478,13.089l.5.248-.5.248a8.306,8.306,0,0,0-6.194,6.194l-.248.5-.248-.5A8.306,8.306,0,0,0,21.6,13.585l-.5-.248.5-.248A8.306,8.306,0,0,0,27.789,6.9l.248-.5.248.5a7.951,7.951,0,0,0,6.194,6.194Z" transform="translate(7.703 -6.4)"/><path class="d" d="M23.971,13.512h0a6.362,6.362,0,0,0-4.212,4.459v0a6.02,6.02,0,0,0-4.212-4.212h0a6.02,6.02,0,0,0,4.212-4.212v0a5.7,5.7,0,0,0,4.212,3.964Z" transform="translate(-0.866 -2.115)"/><path class="e" d="M58.692,32.846h0a8.113,8.113,0,0,0-5.7,5.946v0a7.45,7.45,0,0,0-5.7-5.7h0a7.45,7.45,0,0,0,5.7-5.7v0a7.526,7.526,0,0,0,5.7,5.45Z" transform="translate(45.675 23.888)"/><path class="d" d="M62.779,47.537a27.921,27.921,0,0,0,1.239-7.928A26.509,26.509,0,1,0,37.509,66.118a28.185,28.185,0,0,0,11.149-2.477A26.094,26.094,0,0,1,62.779,47.537Z" transform="translate(-7.219 3.499)"/><path class="f" d="M53.34,35.623A19.82,19.82,0,1,1,33.52,15.8,19.565,19.565,0,0,1,53.34,35.623Z" transform="translate(-3.23 7.485)"/><path class="d" d="M78.718,52.509A26.509,26.509,0,1,1,52.209,26,26.539,26.539,0,0,1,78.718,52.509Z" transform="translate(14.5 22.559)"/><path class="f" d="M68.04,48.523A19.82,19.82,0,1,1,48.22,28.7,19.565,19.565,0,0,1,68.04,48.523Z" transform="translate(18.489 26.545)"/><path class="c" d="M77.3,37.366a1.7,1.7,0,0,0-2.23.743L72.1,44.3A46.575,46.575,0,0,0,57.73,21.758a44.654,44.654,0,0,0-28-10.158,1.734,1.734,0,1,0,0,3.468A40.823,40.823,0,0,1,69.126,45.542l-6.441-3.221A1.662,1.662,0,1,0,61.2,45.294l9.91,4.955c.248,0,.5.248.743.248a1.541,1.541,0,0,0,1.486-.991l4.955-9.662A2.355,2.355,0,0,0,77.3,37.366Z" transform="translate(17.898 1.283)"/><path class="c" d="M10.529,46.031a1.7,1.7,0,0,0,2.23-.743l2.973-6.194A46.575,46.575,0,0,0,30.1,61.639,44.654,44.654,0,0,0,58.1,71.8a1.734,1.734,0,1,0,0-3.468A40.823,40.823,0,0,1,18.705,37.855l6.441,3.221A1.662,1.662,0,0,0,26.633,38.1l-9.91-4.955c-.248,0-.5-.248-.743-.248a1.541,1.541,0,0,0-1.486.991L9.538,43.553A2.355,2.355,0,0,0,10.529,46.031Z" transform="translate(-9.474 32.753)"/></g><g transform="translate(29.358 38.112)"><path class="c" d="M17.748,22.916c0,1.239,1.734,2.477,4.707,3.221a19.121,19.121,0,0,0,9.167,0c2.973-.743,4.707-1.982,4.707-3.221,0-1.982-4.212-3.716-9.167-3.716-5.2,0-9.414,1.734-9.414,3.716Zm12.635,8.176a8.521,8.521,0,0,1,5.2-1.982c.5-.248.5-.743.5-1.239V24.4c-.248,1.982-4.212,3.716-9.167,3.716S17.5,26.385,17.5,24.4v3.221c0,1.982,4.212,3.716,9.167,3.716a16.405,16.405,0,0,0,3.716-.248Zm-12.635-2.23v3.221c0,1.982,4.212,3.716,9.167,3.716h.743a6.486,6.486,0,0,1,1.486-3.221c-.743,0-1.486.248-2.23.248-4.955-.248-9.167-1.982-9.167-3.964Zm9.167,8.423c-5.2,0-9.167-1.486-9.167-3.716V36.79c0,1.982,4.212,3.716,9.167,3.716h1.239a6.858,6.858,0,0,1-.743-3.221Zm13.378-4.707A6.313,6.313,0,0,0,34.1,30.844,5.866,5.866,0,0,0,29.64,35.3a6.36,6.36,0,1,0,10.653-2.725Zm-3.221,6.194a13.742,13.742,0,0,0-1.486,1.982c-.5-.743-.991-1.239-1.486-1.982a13.743,13.743,0,0,0-1.982-1.486c.743-.5,1.239-.991,1.982-1.486a13.742,13.742,0,0,0,1.486-1.982c.5.743.991,1.239,1.486,1.982a13.742,13.742,0,0,0,1.982,1.486c-.743.5-1.239.991-1.982,1.486Zm0,0" transform="translate(-17.5 -19.2)"/></g><g transform="translate(65.282 70.567)"><path class="c" d="M32.248,36.016c0,1.239,1.734,2.477,4.707,3.221a19.121,19.121,0,0,0,9.167,0c2.973-.743,4.707-1.982,4.707-3.221,0-1.982-4.212-3.716-9.167-3.716-5.2,0-9.414,1.734-9.414,3.716Zm12.635,8.176a8.521,8.521,0,0,1,5.2-1.982c.5-.248.5-.743.5-1.239V37.5c-.248,1.982-4.212,3.716-9.167,3.716S32,39.485,32,37.5v3.221c0,1.982,4.212,3.716,9.167,3.716a17.547,17.547,0,0,0,3.716-.248Zm-12.635-2.23v3.221c0,1.982,4.212,3.716,9.167,3.716h.743a6.486,6.486,0,0,1,1.486-3.221c-.743,0-1.486.248-2.23.248-4.955-.248-9.167-1.982-9.167-3.964Zm9.167,8.423c-5.2,0-9.167-1.486-9.167-3.716V49.89c0,1.982,4.212,3.716,9.167,3.716h1.239a6.858,6.858,0,0,1-.743-3.221Zm13.378-4.707A6.313,6.313,0,0,0,48.6,43.944,5.866,5.866,0,0,0,44.14,48.4,6.4,6.4,0,0,0,54.793,54.6a6.509,6.509,0,0,0,0-8.919Zm-3.221,6.194a13.742,13.742,0,0,0-1.486,1.982c-.5-.743-.991-1.239-1.486-1.982a13.742,13.742,0,0,0-1.982-1.486c.743-.5,1.239-.991,1.982-1.486a13.742,13.742,0,0,0,1.486-1.982c.5.743.991,1.239,1.486,1.982a13.742,13.742,0,0,0,1.982,1.486c-.743.5-1.239.991-1.982,1.486Zm0,0" transform="translate(-32 -32.3)"/></g></g></g></svg>