<svg xmlns="http://www.w3.org/2000/svg" width="30" height="30" viewBox="0 0 30 30"><defs><style>.telegram_a{fill:#a1add5;}</style></defs><path class="telegram_a" d="M31,16A15,15,0,1,0,46,31,15,15,0,0,0,31,16Zm7.367,10.276-2.462,11.6c-.181.823-.671,1.022-1.355.635L30.8,35.748,28.992,37.49a.947.947,0,0,1-.756.369l.266-3.817,6.95-6.278c.3-.266-.067-.417-.466-.151L26.4,33.02l-3.7-1.155c-.8-.254-.823-.8.169-1.192L37.327,25.1C38,24.855,38.585,25.26,38.367,26.276Z" transform="translate(-16 -16)"/></svg>