<svg xmlns="http://www.w3.org/2000/svg" xmlns:xlink="http://www.w3.org/1999/xlink" width="30" height="30" viewBox="0 0 30 30"><defs><clipPath id="a"><rect width="30" height="30" transform="translate(957.883 1030.883)"/></clipPath></defs><g transform="translate(-957.883 -1030.883)"><path d="M26.474,99.586a10.868,10.868,0,0,1-3.124.86,5.44,5.44,0,0,0,2.383-3,10.921,10.921,0,0,1-3.455,1.324,5.423,5.423,0,0,0-9.226,4.964,15.421,15.421,0,0,1-11.2-5.692,5.4,5.4,0,0,0-.741,2.727,5.3,5.3,0,0,0,2.3,4.514c-.9-.026-2.581-.265-2.581-.675v.066a5.546,5.546,0,0,0,4.474,5.295,4.991,4.991,0,0,1-1.324.185,5.163,5.163,0,0,1-.993-.093,5.454,5.454,0,0,0,5.083,3.773,10.881,10.881,0,0,1-6.751,2.356A11.351,11.351,0,0,1,0,116.106a15.381,15.381,0,0,0,8.326,2.436,15.342,15.342,0,0,0,15.5-15.448v-.7A11.04,11.04,0,0,0,26.474,99.586Zm0,0" transform="translate(959.734 937.86)" fill="#A1ADD5"/></g></svg>